<svg id="visual" viewBox="0 0 960 600" width="960" height="600" xmlns="http://www.w3.org/2000/svg" xmlns:xlink="http://www.w3.org/1999/xlink" version="1.1"><rect x="0" y="0" width="960" height="600" fill="#24252a"></rect><defs><linearGradient id="grad1_0" x1="37.5%" y1="0%" x2="100%" y2="100%"><stop offset="17.999999999999996%" stop-color="#f341a9" stop-opacity="1"></stop><stop offset="82%" stop-color="#f341a9" stop-opacity="1"></stop></linearGradient></defs><defs><linearGradient id="grad1_1" x1="37.5%" y1="0%" x2="100%" y2="100%"><stop offset="17.999999999999996%" stop-color="#f341a9" stop-opacity="1"></stop><stop offset="82%" stop-color="#ca47a5" stop-opacity="1"></stop></linearGradient></defs><defs><linearGradient id="grad1_2" x1="37.5%" y1="0%" x2="100%" y2="100%"><stop offset="17.999999999999996%" stop-color="#a2499c" stop-opacity="1"></stop><stop offset="82%" stop-color="#ca47a5" stop-opacity="1"></stop></linearGradient></defs><defs><linearGradient id="grad1_3" x1="37.5%" y1="0%" x2="100%" y2="100%"><stop offset="17.999999999999996%" stop-color="#a2499c" stop-opacity="1"></stop><stop offset="82%" stop-color="#7d488c" stop-opacity="1"></stop></linearGradient></defs><defs><linearGradient id="grad1_4" x1="37.5%" y1="0%" x2="100%" y2="100%"><stop offset="17.999999999999996%" stop-color="#5d4278" stop-opacity="1"></stop><stop offset="82%" stop-color="#7d488c" stop-opacity="1"></stop></linearGradient></defs><defs><linearGradient id="grad1_5" x1="37.5%" y1="0%" x2="100%" y2="100%"><stop offset="17.999999999999996%" stop-color="#5d4278" stop-opacity="1"></stop><stop offset="82%" stop-color="#433b60" stop-opacity="1"></stop></linearGradient></defs><defs><linearGradient id="grad1_6" x1="37.5%" y1="0%" x2="100%" y2="100%"><stop offset="17.999999999999996%" stop-color="#303145" stop-opacity="1"></stop><stop offset="82%" stop-color="#433b60" stop-opacity="1"></stop></linearGradient></defs><defs><linearGradient id="grad1_7" x1="37.5%" y1="0%" x2="100%" y2="100%"><stop offset="17.999999999999996%" stop-color="#303145" stop-opacity="1"></stop><stop offset="82%" stop-color="#24252a" stop-opacity="1"></stop></linearGradient></defs><defs><linearGradient id="grad2_0" x1="0%" y1="0%" x2="62.5%" y2="100%"><stop offset="17.999999999999996%" stop-color="#f341a9" stop-opacity="1"></stop><stop offset="82%" stop-color="#f341a9" stop-opacity="1"></stop></linearGradient></defs><defs><linearGradient id="grad2_1" x1="0%" y1="0%" x2="62.5%" y2="100%"><stop offset="17.999999999999996%" stop-color="#ca47a5" stop-opacity="1"></stop><stop offset="82%" stop-color="#f341a9" stop-opacity="1"></stop></linearGradient></defs><defs><linearGradient id="grad2_2" x1="0%" y1="0%" x2="62.5%" y2="100%"><stop offset="17.999999999999996%" stop-color="#ca47a5" stop-opacity="1"></stop><stop offset="82%" stop-color="#a2499c" stop-opacity="1"></stop></linearGradient></defs><defs><linearGradient id="grad2_3" x1="0%" y1="0%" x2="62.5%" y2="100%"><stop offset="17.999999999999996%" stop-color="#7d488c" stop-opacity="1"></stop><stop offset="82%" stop-color="#a2499c" stop-opacity="1"></stop></linearGradient></defs><defs><linearGradient id="grad2_4" x1="0%" y1="0%" x2="62.5%" y2="100%"><stop offset="17.999999999999996%" stop-color="#7d488c" stop-opacity="1"></stop><stop offset="82%" stop-color="#5d4278" stop-opacity="1"></stop></linearGradient></defs><defs><linearGradient id="grad2_5" x1="0%" y1="0%" x2="62.5%" y2="100%"><stop offset="17.999999999999996%" stop-color="#433b60" stop-opacity="1"></stop><stop offset="82%" stop-color="#5d4278" stop-opacity="1"></stop></linearGradient></defs><defs><linearGradient id="grad2_6" x1="0%" y1="0%" x2="62.5%" y2="100%"><stop offset="17.999999999999996%" stop-color="#433b60" stop-opacity="1"></stop><stop offset="82%" stop-color="#303145" stop-opacity="1"></stop></linearGradient></defs><defs><linearGradient id="grad2_7" x1="0%" y1="0%" x2="62.5%" y2="100%"><stop offset="17.999999999999996%" stop-color="#24252a" stop-opacity="1"></stop><stop offset="82%" stop-color="#303145" stop-opacity="1"></stop></linearGradient></defs><g transform="translate(960, 0)"><path d="M0 424.5C-74.5 413.6 -149 402.6 -212.3 367.7C-275.5 332.7 -327.6 273.8 -361.1 208.5C-394.6 143.2 -409.6 71.6 -424.5 0L0 0Z" fill="#292b38"></path><path d="M0 371.5C-65.2 361.9 -130.4 352.3 -185.7 321.7C-241.1 291.1 -286.7 239.6 -316 182.4C-345.3 125.3 -358.4 62.7 -371.5 0L0 0Z" fill="#393653"></path><path d="M0 318.4C-55.9 310.2 -111.7 302 -159.2 275.7C-206.7 249.5 -245.7 205.3 -270.8 156.4C-296 107.4 -307.2 53.7 -318.4 0L0 0Z" fill="#4f3f6c"></path><path d="M0 265.3C-46.6 258.5 -93.1 251.6 -132.7 229.8C-172.2 207.9 -204.8 171.1 -225.7 130.3C-246.7 89.5 -256 44.8 -265.3 0L0 0Z" fill="#6c4582"></path><path d="M0 212.3C-37.2 206.8 -74.5 201.3 -106.1 183.8C-137.8 166.4 -163.8 136.9 -180.6 104.3C-197.3 71.6 -204.8 35.8 -212.3 0L0 0Z" fill="#8f4995"></path><path d="M0 159.2C-27.9 155.1 -55.9 151 -79.6 137.9C-103.3 124.8 -122.9 102.7 -135.4 78.2C-148 53.7 -153.6 26.9 -159.2 0L0 0Z" fill="#b649a1"></path><path d="M0 106.1C-18.6 103.4 -37.2 100.7 -53.1 91.9C-68.9 83.2 -81.9 68.4 -90.3 52.1C-98.7 35.8 -102.4 17.9 -106.1 0L0 0Z" fill="#de45a8"></path><path d="M0 53.1C-9.3 51.7 -18.6 50.3 -26.5 46C-34.4 41.6 -41 34.2 -45.1 26.1C-49.3 17.9 -51.2 9 -53.1 0L0 0Z" fill="#f341a9"></path></g><g transform="translate(0, 600)"><path d="M0 -424.5C75 -413.8 149.9 -403.1 212.3 -367.7C274.6 -332.2 324.4 -271.9 357.7 -206.5C390.9 -141.1 407.7 -70.5 424.5 0L0 0Z" fill="#292b38"></path><path d="M0 -371.5C65.6 -362.1 131.2 -352.7 185.7 -321.7C240.3 -290.7 283.8 -237.9 313 -180.7C342.1 -123.5 356.8 -61.7 371.5 0L0 0Z" fill="#393653"></path><path d="M0 -318.4C56.2 -310.4 112.4 -302.4 159.2 -275.7C206 -249.1 243.3 -203.9 268.3 -154.9C293.2 -105.8 305.8 -52.9 318.4 0L0 0Z" fill="#4f3f6c"></path><path d="M0 -265.3C46.8 -258.6 93.7 -252 132.7 -229.8C171.6 -207.6 202.7 -169.9 223.5 -129.1C244.3 -88.2 254.8 -44.1 265.3 0L0 0Z" fill="#6c4582"></path><path d="M0 -212.3C37.5 -206.9 75 -201.6 106.1 -183.8C137.3 -166.1 162.2 -136 178.8 -103.3C195.5 -70.5 203.9 -35.3 212.3 0L0 0Z" fill="#8f4995"></path><path d="M0 -159.2C28.1 -155.2 56.2 -151.2 79.6 -137.9C103 -124.6 121.6 -102 134.1 -77.4C146.6 -52.9 152.9 -26.5 159.2 0L0 0Z" fill="#b649a1"></path><path d="M0 -106.1C18.7 -103.5 37.5 -100.8 53.1 -91.9C68.7 -83 81.1 -68 89.4 -51.6C97.7 -35.3 101.9 -17.6 106.1 0L0 0Z" fill="#de45a8"></path><path d="M0 -53.1C9.4 -51.7 18.7 -50.4 26.5 -46C34.3 -41.5 40.5 -34 44.7 -25.8C48.9 -17.6 51 -8.8 53.1 0L0 0Z" fill="#f341a9"></path></g></svg>