<svg id="visual" viewBox="0 0 960 600" width="960" height="600" xmlns="http://www.w3.org/2000/svg" xmlns:xlink="http://www.w3.org/1999/xlink" version="1.1"><rect x="0" y="0" width="960" height="600" fill="#24252a"></rect><path d="M455 0L461 120L531 240L490 360L459 480L511 600L0 600L0 480L0 360L0 240L0 120L0 0Z" fill="#f5730a"></path><path d="M378 0L444 120L417 240L370 360L483 480L429 600L0 600L0 480L0 360L0 240L0 120L0 0Z" fill="#f06520"></path><path d="M463 0L404 120L373 240L344 360L352 480L437 600L0 600L0 480L0 360L0 240L0 120L0 0Z" fill="#e9572d"></path><path d="M348 0L427 120L307 240L375 360L312 480L309 600L0 600L0 480L0 360L0 240L0 120L0 0Z" fill="#e04b36"></path><path d="M369 0L374 120L277 240L351 360L314 480L305 600L0 600L0 480L0 360L0 240L0 120L0 0Z" fill="#d53f3e"></path><path d="M352 0L272 120L278 240L338 360L257 480L302 600L0 600L0 480L0 360L0 240L0 120L0 0Z" fill="#c93544"></path><path d="M286 0L309 120L216 240L266 360L291 480L240 600L0 600L0 480L0 360L0 240L0 120L0 0Z" fill="#bc2d49"></path><path d="M227 0L186 120L262 240L225 360L225 480L205 600L0 600L0 480L0 360L0 240L0 120L0 0Z" fill="#ae274d"></path><path d="M198 0L172 120L171 240L166 360L154 480L164 600L0 600L0 480L0 360L0 240L0 120L0 0Z" fill="#9f234f"></path><path d="M133 0L174 120L119 240L143 360L178 480L133 600L0 600L0 480L0 360L0 240L0 120L0 0Z" fill="#902050"></path><path d="M115 0L116 120L107 240L125 360L130 480L94 600L0 600L0 480L0 360L0 240L0 120L0 0Z" fill="#801e50"></path><path d="M66 0L67 120L65 240L84 360L75 480L69 600L0 600L0 480L0 360L0 240L0 120L0 0Z" fill="#701d4e"></path></svg>