<svg id="visual" viewBox="0 0 960 300" width="960" height="300" xmlns="http://www.w3.org/2000/svg" xmlns:xlink="http://www.w3.org/1999/xlink" version="1.1"><rect x="0" y="0" width="960" height="300" fill="#24252a"></rect><path d="M0 241L16 242.2C32 243.3 64 245.7 96 244.3C128 243 160 238 192 232.3C224 226.7 256 220.3 288 218.8C320 217.3 352 220.7 384 222.2C416 223.7 448 223.3 480 224.2C512 225 544 227 576 232.2C608 237.3 640 245.7 672 247.2C704 248.7 736 243.3 768 233.3C800 223.3 832 208.7 864 204.3C896 200 928 206 944 209L960 212L960 0L944 0C928 0 896 0 864 0C832 0 800 0 768 0C736 0 704 0 672 0C640 0 608 0 576 0C544 0 512 0 480 0C448 0 416 0 384 0C352 0 320 0 288 0C256 0 224 0 192 0C160 0 128 0 96 0C64 0 32 0 16 0L0 0Z" fill="#fa7268"></path><path d="M0 163L16 168.7C32 174.3 64 185.7 96 190.5C128 195.3 160 193.7 192 195C224 196.3 256 200.7 288 194C320 187.3 352 169.7 384 164C416 158.3 448 164.7 480 169C512 173.3 544 175.7 576 171.5C608 167.3 640 156.7 672 160C704 163.3 736 180.7 768 185C800 189.3 832 180.7 864 185.3C896 190 928 208 944 217L960 226L960 0L944 0C928 0 896 0 864 0C832 0 800 0 768 0C736 0 704 0 672 0C640 0 608 0 576 0C544 0 512 0 480 0C448 0 416 0 384 0C352 0 320 0 288 0C256 0 224 0 192 0C160 0 128 0 96 0C64 0 32 0 16 0L0 0Z" fill="#e15d66"></path><path d="M0 157L16 157.8C32 158.7 64 160.3 96 161.3C128 162.3 160 162.7 192 160.5C224 158.3 256 153.7 288 151C320 148.3 352 147.7 384 150C416 152.3 448 157.7 480 165.5C512 173.3 544 183.7 576 188C608 192.3 640 190.7 672 182C704 173.3 736 157.7 768 153.5C800 149.3 832 156.7 864 165C896 173.3 928 182.7 944 187.3L960 192L960 0L944 0C928 0 896 0 864 0C832 0 800 0 768 0C736 0 704 0 672 0C640 0 608 0 576 0C544 0 512 0 480 0C448 0 416 0 384 0C352 0 320 0 288 0C256 0 224 0 192 0C160 0 128 0 96 0C64 0 32 0 16 0L0 0Z" fill="#c64a62"></path><path d="M0 119L16 123.8C32 128.7 64 138.3 96 142.8C128 147.3 160 146.7 192 137.3C224 128 256 110 288 106.2C320 102.3 352 112.7 384 118C416 123.3 448 123.7 480 123.7C512 123.7 544 123.3 576 119.2C608 115 640 107 672 111.5C704 116 736 133 768 134C800 135 832 120 864 115.2C896 110.3 928 115.7 944 118.3L960 121L960 0L944 0C928 0 896 0 864 0C832 0 800 0 768 0C736 0 704 0 672 0C640 0 608 0 576 0C544 0 512 0 480 0C448 0 416 0 384 0C352 0 320 0 288 0C256 0 224 0 192 0C160 0 128 0 96 0C64 0 32 0 16 0L0 0Z" fill="#aa395d"></path><path d="M0 62L16 69.7C32 77.3 64 92.7 96 89.8C128 87 160 66 192 56C224 46 256 47 288 50.7C320 54.3 352 60.7 384 68.8C416 77 448 87 480 88.8C512 90.7 544 84.3 576 85.3C608 86.3 640 94.7 672 89.8C704 85 736 67 768 61.2C800 55.3 832 61.7 864 65.7C896 69.7 928 71.3 944 72.2L960 73L960 0L944 0C928 0 896 0 864 0C832 0 800 0 768 0C736 0 704 0 672 0C640 0 608 0 576 0C544 0 512 0 480 0C448 0 416 0 384 0C352 0 320 0 288 0C256 0 224 0 192 0C160 0 128 0 96 0C64 0 32 0 16 0L0 0Z" fill="#8d2a57"></path><path d="M0 66L16 60C32 54 64 42 96 42.5C128 43 160 56 192 58.7C224 61.3 256 53.7 288 52.8C320 52 352 58 384 59.2C416 60.3 448 56.7 480 56.3C512 56 544 59 576 59.2C608 59.3 640 56.7 672 50.3C704 44 736 34 768 32C800 30 832 36 864 37C896 38 928 34 944 32L960 30L960 0L944 0C928 0 896 0 864 0C832 0 800 0 768 0C736 0 704 0 672 0C640 0 608 0 576 0C544 0 512 0 480 0C448 0 416 0 384 0C352 0 320 0 288 0C256 0 224 0 192 0C160 0 128 0 96 0C64 0 32 0 16 0L0 0Z" fill="#701d4e"></path></svg>