<svg id="visual" viewBox="0 0 960 600" width="960" height="600" xmlns="http://www.w3.org/2000/svg" xmlns:xlink="http://www.w3.org/1999/xlink" version="1.1"><g stroke-width="2" stroke-linejoin="bevel"><path d="M405.7 312L430.7 215L340 211Z" fill="#d73a96" stroke="#f341a9"></path><path d="M340 211L295 272L405.7 312Z" fill="#952868" stroke="#f341a9"></path><path d="M295 272L314 393L405.7 312Z" fill="#af2f7a" stroke="#f341a9"></path><path d="M314 393L425.7 411L405.7 312Z" fill="#ca368d" stroke="#f341a9"></path><path d="M552.3 323L561.3 229L430.7 215Z" fill="#7c2157" stroke="#f341a9"></path><path d="M340 211L226.3 212L295 272Z" fill="#af2f7a" stroke="#f341a9"></path><path d="M295 272L219.3 326L314 393Z" fill="#7c2157" stroke="#f341a9"></path><path d="M226.3 212L219.3 326L295 272Z" fill="#89245f" stroke="#f341a9"></path><path d="M552.3 323L430.7 215L405.7 312Z" fill="#89245f" stroke="#f341a9"></path><path d="M425.7 411L552.3 323L405.7 312Z" fill="#89245f" stroke="#f341a9"></path><path d="M561.3 229L535.3 135L430.7 215Z" fill="#7c2157" stroke="#f341a9"></path><path d="M430.7 215L433.7 66L340 211Z" fill="#af2f7a" stroke="#f341a9"></path><path d="M340 211L292 78L226.3 212Z" fill="#701d4e" stroke="#f341a9"></path><path d="M535.3 135L433.7 66L430.7 215Z" fill="#89245f" stroke="#f341a9"></path><path d="M433.7 66L292 78L340 211Z" fill="#952868" stroke="#f341a9"></path><path d="M425.7 411L565.3 367L552.3 323Z" fill="#d73a96" stroke="#f341a9"></path><path d="M670 326L630 177L561.3 229Z" fill="#af2f7a" stroke="#f341a9"></path><path d="M292 78L209.3 115L226.3 212Z" fill="#952868" stroke="#f341a9"></path><path d="M226.3 212L121.7 281L219.3 326Z" fill="#bc3383" stroke="#f341a9"></path><path d="M314 393L392.7 484L425.7 411Z" fill="#a22b71" stroke="#f341a9"></path><path d="M425.7 411L526.3 512L565.3 367Z" fill="#701d4e" stroke="#f341a9"></path><path d="M330 523L392.7 484L314 393Z" fill="#a22b71" stroke="#f341a9"></path><path d="M219.3 326L224.3 429L314 393Z" fill="#f341a9" stroke="#f341a9"></path><path d="M209.3 115L139.7 195L226.3 212Z" fill="#bc3383" stroke="#f341a9"></path><path d="M219.3 326L90.7 373L224.3 429Z" fill="#a22b71" stroke="#f341a9"></path><path d="M561.3 229L630 177L535.3 135Z" fill="#ca368d" stroke="#f341a9"></path><path d="M543.3 0L460.7 0L433.7 66Z" fill="#a22b71" stroke="#f341a9"></path><path d="M670 326L561.3 229L552.3 323Z" fill="#f341a9" stroke="#f341a9"></path><path d="M139.7 195L121.7 281L226.3 212Z" fill="#f341a9" stroke="#f341a9"></path><path d="M292 78L193.3 0L209.3 115Z" fill="#7c2157" stroke="#f341a9"></path><path d="M433.7 66L316 0L292 78Z" fill="#af2f7a" stroke="#f341a9"></path><path d="M543.3 0L433.7 66L535.3 135Z" fill="#701d4e" stroke="#f341a9"></path><path d="M433.7 66L460.7 0L316 0Z" fill="#bc3383" stroke="#f341a9"></path><path d="M238.3 508L330 523L314 393Z" fill="#7c2157" stroke="#f341a9"></path><path d="M137.7 527L238.3 508L224.3 429Z" fill="#ca368d" stroke="#f341a9"></path><path d="M224.3 429L238.3 508L314 393Z" fill="#952868" stroke="#f341a9"></path><path d="M209.3 115L125.7 114L139.7 195Z" fill="#952868" stroke="#f341a9"></path><path d="M0 165L0 330L121.7 281Z" fill="#a22b71" stroke="#f341a9"></path><path d="M193.3 0L125.7 114L209.3 115Z" fill="#d73a96" stroke="#f341a9"></path><path d="M392.7 484L526.3 512L425.7 411Z" fill="#d73a96" stroke="#f341a9"></path><path d="M565.3 367L670 326L552.3 323Z" fill="#7c2157" stroke="#f341a9"></path><path d="M391.7 600L526.3 512L392.7 484Z" fill="#a22b71" stroke="#f341a9"></path><path d="M630 177L639 108L535.3 135Z" fill="#89245f" stroke="#f341a9"></path><path d="M648 430L670 326L565.3 367Z" fill="#d73a96" stroke="#f341a9"></path><path d="M630 177L745.7 186L639 108Z" fill="#f341a9" stroke="#f341a9"></path><path d="M639 108L543.3 0L535.3 135Z" fill="#a22b71" stroke="#f341a9"></path><path d="M0 330L90.7 373L121.7 281Z" fill="#bc3383" stroke="#f341a9"></path><path d="M121.7 281L90.7 373L219.3 326Z" fill="#ca368d" stroke="#f341a9"></path><path d="M618 493L648 430L565.3 367Z" fill="#bc3383" stroke="#f341a9"></path><path d="M316 0L193.3 0L292 78Z" fill="#89245f" stroke="#f341a9"></path><path d="M526.3 512L618 493L565.3 367Z" fill="#d73a96" stroke="#f341a9"></path><path d="M639 108L615 0L543.3 0Z" fill="#701d4e" stroke="#f341a9"></path><path d="M323 600L391.7 600L330 523Z" fill="#952868" stroke="#f341a9"></path><path d="M330 523L391.7 600L392.7 484Z" fill="#af2f7a" stroke="#f341a9"></path><path d="M526.3 512L519.3 600L618 493Z" fill="#d73a96" stroke="#f341a9"></path><path d="M190.3 600L323 600L238.3 508Z" fill="#af2f7a" stroke="#f341a9"></path><path d="M238.3 508L323 600L330 523Z" fill="#7c2157" stroke="#f341a9"></path><path d="M733.7 416L733.7 286L670 326Z" fill="#701d4e" stroke="#f341a9"></path><path d="M670 326L733.7 286L630 177Z" fill="#89245f" stroke="#f341a9"></path><path d="M639 108L776.7 0L615 0Z" fill="#f341a9" stroke="#f341a9"></path><path d="M733.7 416L670 326L648 430Z" fill="#7c2157" stroke="#f341a9"></path><path d="M193.3 0L133.7 0L125.7 114Z" fill="#701d4e" stroke="#f341a9"></path><path d="M0 165L121.7 281L139.7 195Z" fill="#a22b71" stroke="#f341a9"></path><path d="M90.7 373L137.7 527L224.3 429Z" fill="#e53d9f" stroke="#f341a9"></path><path d="M733.7 286L745.7 186L630 177Z" fill="#af2f7a" stroke="#f341a9"></path><path d="M391.7 600L519.3 600L526.3 512Z" fill="#af2f7a" stroke="#f341a9"></path><path d="M769.7 524L648 430L618 493Z" fill="#f341a9" stroke="#f341a9"></path><path d="M769.7 524L733.7 416L648 430Z" fill="#bc3383" stroke="#f341a9"></path><path d="M818.3 173L764.7 108L745.7 186Z" fill="#f341a9" stroke="#f341a9"></path><path d="M0 165L139.7 195L125.7 114Z" fill="#e53d9f" stroke="#f341a9"></path><path d="M90.7 373L0 495L137.7 527Z" fill="#952868" stroke="#f341a9"></path><path d="M0 72L0 165L125.7 114Z" fill="#bc3383" stroke="#f341a9"></path><path d="M137.7 527L190.3 600L238.3 508Z" fill="#701d4e" stroke="#f341a9"></path><path d="M0 330L0 389L90.7 373Z" fill="#89245f" stroke="#f341a9"></path><path d="M137.7 527L134.7 600L190.3 600Z" fill="#a22b71" stroke="#f341a9"></path><path d="M818.3 173L745.7 186L733.7 286Z" fill="#a22b71" stroke="#f341a9"></path><path d="M745.7 186L764.7 108L639 108Z" fill="#701d4e" stroke="#f341a9"></path><path d="M133.7 0L0 72L125.7 114Z" fill="#e53d9f" stroke="#f341a9"></path><path d="M0 600L134.7 600L137.7 527Z" fill="#701d4e" stroke="#f341a9"></path><path d="M519.3 600L652 600L618 493Z" fill="#952868" stroke="#f341a9"></path><path d="M846.3 294L818.3 173L733.7 286Z" fill="#701d4e" stroke="#f341a9"></path><path d="M0 389L0 495L90.7 373Z" fill="#89245f" stroke="#f341a9"></path><path d="M133.7 0L0 0L0 72Z" fill="#ca368d" stroke="#f341a9"></path><path d="M833.3 384L846.3 294L733.7 286Z" fill="#7c2157" stroke="#f341a9"></path><path d="M833.3 384L733.7 286L733.7 416Z" fill="#e53d9f" stroke="#f341a9"></path><path d="M870.3 471L833.3 384L733.7 416Z" fill="#701d4e" stroke="#f341a9"></path><path d="M823.3 0L776.7 0L764.7 108Z" fill="#ca368d" stroke="#f341a9"></path><path d="M764.7 108L776.7 0L639 108Z" fill="#89245f" stroke="#f341a9"></path><path d="M652 600L769.7 524L618 493Z" fill="#d73a96" stroke="#f341a9"></path><path d="M652 600L732.7 600L769.7 524Z" fill="#89245f" stroke="#f341a9"></path><path d="M818.3 173L855.3 110L764.7 108Z" fill="#ca368d" stroke="#f341a9"></path><path d="M960 229L855.3 110L818.3 173Z" fill="#a22b71" stroke="#f341a9"></path><path d="M855.3 110L823.3 0L764.7 108Z" fill="#af2f7a" stroke="#f341a9"></path><path d="M0 495L0 600L137.7 527Z" fill="#a22b71" stroke="#f341a9"></path><path d="M838.3 600L870.3 471L769.7 524Z" fill="#af2f7a" stroke="#f341a9"></path><path d="M769.7 524L870.3 471L733.7 416Z" fill="#ca368d" stroke="#f341a9"></path><path d="M960 334L960 229L846.3 294Z" fill="#bc3383" stroke="#f341a9"></path><path d="M846.3 294L960 229L818.3 173Z" fill="#f341a9" stroke="#f341a9"></path><path d="M732.7 600L838.3 600L769.7 524Z" fill="#e53d9f" stroke="#f341a9"></path><path d="M960 334L833.3 384L960 377Z" fill="#89245f" stroke="#f341a9"></path><path d="M960 334L846.3 294L833.3 384Z" fill="#89245f" stroke="#f341a9"></path><path d="M855.3 110L960 0L823.3 0Z" fill="#d73a96" stroke="#f341a9"></path><path d="M960 377L833.3 384L870.3 471Z" fill="#89245f" stroke="#f341a9"></path><path d="M960 489L960 377L870.3 471Z" fill="#af2f7a" stroke="#f341a9"></path><path d="M960 229L960 105L855.3 110Z" fill="#af2f7a" stroke="#f341a9"></path><path d="M960 600L960 489L870.3 471Z" fill="#89245f" stroke="#f341a9"></path><path d="M960 105L960 0L855.3 110Z" fill="#ca368d" stroke="#f341a9"></path><path d="M838.3 600L960 600L870.3 471Z" fill="#af2f7a" stroke="#f341a9"></path></g></svg>